<svg width="18" height="18" viewBox="0 0 18 18" fill="none" xmlns="http://www.w3.org/2000/svg">
<rect x="5" y="16" width="13" height="1" fill="black"/>
<path d="M3.59169 11.4C3.59169 11.872 3.65569 12.236 3.78369 12.492C3.91169 12.748 4.15969 12.876 4.52769 12.876C4.76769 12.876 4.95569 12.824 5.09169 12.72C5.23569 12.616 5.34369 12.476 5.41569 12.3C5.48769 12.132 5.53169 11.936 5.54769 11.712C5.56369 11.48 5.57169 11.24 5.57169 10.992V3H8.31969V3.624L7.71969 4.176V10.992C7.71969 11.616 7.63169 12.14 7.45569 12.564C7.27969 12.996 7.03969 13.344 6.73569 13.608C6.43969 13.872 6.09569 14.06 5.70369 14.172C5.31969 14.284 4.91969 14.34 4.50369 14.34C3.94369 14.34 3.46769 14.256 3.07569 14.088C2.69169 13.928 2.37569 13.712 2.12769 13.44C1.88769 13.176 1.71169 12.864 1.59969 12.504C1.49569 12.152 1.44369 11.784 1.44369 11.4V10.416H3.59169V11.4ZM9.52109 3H12.2811V3.624L11.6811 4.176V11.196C11.6811 11.844 11.7971 12.308 12.0291 12.588C12.2611 12.876 12.6571 13.02 13.2171 13.02C13.7771 13.02 14.1731 12.876 14.4051 12.588C14.6371 12.308 14.7531 11.844 14.7531 11.196V3H17.5011V3.624L16.9011 4.176V10.86C16.9011 11.5 16.8091 12.04 16.6251 12.48C16.4411 12.92 16.1851 13.276 15.8571 13.548C15.5371 13.828 15.1491 14.028 14.6931 14.148C14.2451 14.276 13.7531 14.34 13.2171 14.34C12.6731 14.34 12.1731 14.276 11.7171 14.148C11.2691 14.028 10.8811 13.828 10.5531 13.548C10.2331 13.276 9.98109 12.92 9.79709 12.48C9.61309 12.04 9.52109 11.5 9.52109 10.86V3Z" fill="black"/>
</svg>
