<svg width="90" height="90" viewBox="0 0 90 90" fill="none" xmlns="http://www.w3.org/2000/svg">
<path d="M15.9375 0.00012207H74.0625C82.875 0.00012207 90 7.30781 90 16.3463V73.654C90 82.6924 82.875 90.0001 74.0625 90.0001H15.9375C7.125 90.0001 0 82.6924 0 73.654V16.3463C0 7.30781 7.125 0.00012207 15.9375 0.00012207Z" fill="#001E36"/>
<path d="M20.25 63.1153V23.5384C20.25 23.2691 20.3625 23.1153 20.625 23.1153C21.2625 23.1153 21.8625 23.1153 22.725 23.0768C23.625 23.0384 24.5625 23.0384 25.575 22.9999C26.5875 22.9614 27.675 22.9614 28.8375 22.923C30 22.8845 31.125 22.8845 32.25 22.8845C35.325 22.8845 37.875 23.2691 39.975 24.0768C41.85 24.7307 43.575 25.8076 45 27.2307C46.2 28.4614 47.1375 29.9614 47.7375 31.6153C48.3 33.2307 48.6 34.8845 48.6 36.6153C48.6 39.923 47.85 42.6538 46.35 44.8076C44.85 46.9614 42.75 48.5768 40.3125 49.4999C37.7625 50.4614 34.95 50.8076 31.875 50.8076C30.975 50.8076 30.375 50.8076 30 50.7691C29.625 50.7307 29.1 50.7307 28.3875 50.7307V63.0768C28.425 63.3461 28.2375 63.5768 27.975 63.6153H20.7C20.4 63.6153 20.25 63.4614 20.25 63.1153ZM28.425 30.5384V43.4614C28.95 43.4999 29.4375 43.5384 29.8875 43.5384H31.875C33.3375 43.5384 34.8 43.3076 36.1875 42.8461C37.3875 42.4999 38.4375 41.7691 39.2625 40.8076C40.05 39.8461 40.425 38.5384 40.425 36.8461C40.4625 35.6538 40.1625 34.4614 39.5625 33.423C38.925 32.423 38.025 31.6538 36.9375 31.2307C35.55 30.6538 34.05 30.423 32.5125 30.4614C31.5375 30.4614 30.675 30.4614 29.9625 30.4999C29.2125 30.4614 28.6875 30.4999 28.425 30.5384Z" fill="#31A8FF"/>
<path d="M71.9997 41.1154C70.8747 40.5 69.6747 40.0769 68.3997 39.8077C67.0122 39.5 65.6247 39.3077 64.1997 39.3077C63.4497 39.2692 62.6622 39.3846 61.9497 39.5769C61.4622 39.6923 61.0497 39.9616 60.7872 40.3462C60.5997 40.6539 60.4872 41.0385 60.4872 41.3846C60.4872 41.7308 60.6372 42.0769 60.8622 42.3846C61.1997 42.8077 61.6497 43.1539 62.1372 43.4231C62.9997 43.8846 63.8997 44.3077 64.7997 44.6923C66.8247 45.3846 68.7747 46.3462 70.5747 47.5C71.8122 48.3077 72.8247 49.3846 73.5372 50.6923C74.1372 51.9231 74.4372 53.2693 74.3997 54.6539C74.4372 56.4616 73.9122 58.2692 72.9372 59.7692C71.8872 61.3077 70.4247 62.5 68.7372 63.1923C66.8997 64 64.6497 64.4231 61.9497 64.4231C60.2247 64.4231 58.5372 64.2692 56.8497 63.9231C55.5372 63.6923 54.2247 63.2693 53.0247 62.6923C52.7622 62.5385 52.5747 62.2693 52.6122 61.9616V55.2692C52.6122 55.1539 52.6497 55 52.7622 54.9231C52.8747 54.8462 52.9872 54.8846 53.0997 54.9616C54.5622 55.8462 56.0997 56.4616 57.7497 56.8462C59.1747 57.2308 60.6747 57.4231 62.1747 57.4231C63.5997 57.4231 64.6122 57.2308 65.2872 56.8846C65.8872 56.6154 66.2997 55.9616 66.2997 55.2692C66.2997 54.7308 65.9997 54.2308 65.3997 53.7308C64.7997 53.2308 63.5622 52.6539 61.7247 51.9231C59.8122 51.2308 58.0497 50.3077 56.3997 49.1539C55.2372 48.3077 54.2622 47.1923 53.5497 45.8846C52.9497 44.6539 52.6497 43.3077 52.6872 41.9616C52.6872 40.3077 53.1372 38.7308 53.9622 37.3077C54.8997 35.7692 56.2872 34.5385 57.8997 33.7692C59.6622 32.8462 61.8747 32.4231 64.5372 32.4231C66.0747 32.4231 67.6497 32.5385 69.1872 32.7692C70.3122 32.9231 71.3997 33.2308 72.4122 33.6539C72.5622 33.6923 72.7122 33.8462 72.7872 34C72.8247 34.1539 72.8622 34.3077 72.8622 34.4616V40.7308C72.8622 40.8846 72.7872 41.0385 72.6747 41.1154C72.3372 41.1923 72.1497 41.1923 71.9997 41.1154Z" fill="#31A8FF"/>
</svg>
