<svg width="90" height="90" viewBox="0 0 90 90" fill="none" xmlns="http://www.w3.org/2000/svg">
<path d="M15.9375 0H74.0625C82.875 0 90 7.30769 90 16.3462V73.6538C90 82.6923 82.875 90 74.0625 90H15.9375C7.125 90 0 82.6923 0 73.6538V16.3462C0 7.30769 7.125 0 15.9375 0Z" fill="#330000"/>
<path d="M43.6123 53.9999H29.6623L26.8123 63.0383C26.7373 63.3845 26.4373 63.6153 26.0998 63.5768H19.0498C18.6373 63.5768 18.5248 63.346 18.6373 62.8845L30.7123 27.2306C30.8248 26.846 30.9373 26.4229 31.0873 25.9614C31.2373 25.1537 31.3123 24.3076 31.3123 23.4614C31.2748 23.2691 31.4248 23.0768 31.6123 23.0383H41.3248C41.6248 23.0383 41.7748 23.1537 41.8123 23.346L55.4998 62.9614C55.6123 63.3845 55.4998 63.5768 55.1248 63.5768H47.2873C47.0248 63.6153 46.7623 63.4229 46.6873 63.1537L43.6123 53.9999ZM31.8373 46.1922H41.3623C41.1373 45.3845 40.8373 44.4229 40.4998 43.4229C40.1623 42.3845 39.8248 41.2691 39.4873 40.1153C39.1123 38.9229 38.7748 37.7691 38.3998 36.5768C38.0248 35.3845 37.6873 34.2691 37.3873 33.1537C37.0873 32.0768 36.8248 31.0768 36.5623 30.1537H36.4873C36.1498 31.8076 35.7373 33.4614 35.2123 35.1153C34.6498 36.9614 34.0873 38.8845 33.4873 40.8076C32.9623 42.7691 32.3998 44.5768 31.8373 46.1922Z" fill="#FF9A00"/>
<path d="M63.6747 29.6155C62.4372 29.654 61.2372 29.154 60.3372 28.2694C59.4747 27.3078 59.0247 26.0386 59.0622 24.7309C59.0247 23.4232 59.5122 22.1924 60.4122 21.3078C61.3122 20.4232 62.5122 19.9617 63.7497 19.9617C65.2122 19.9617 66.3372 20.4232 67.1622 21.3078C67.9872 22.2309 68.4372 23.4617 68.3997 24.7309C68.4372 26.0386 67.9872 27.3078 67.0872 28.2694C66.2247 29.1924 64.9497 29.6924 63.6747 29.6155ZM59.4747 63.0001V33.3847C59.4747 33.0001 59.6247 32.8463 59.9622 32.8463H67.3872C67.7247 32.8463 67.8747 33.0386 67.8747 33.3847V63.0001C67.8747 63.4232 67.7247 63.6155 67.3872 63.6155H60.0372C59.6622 63.6155 59.4747 63.3847 59.4747 63.0001Z" fill="#FF9A00"/>
</svg>
